PathFileType	4	(X/Y/Z)	C:\Users\Basilio\Documents\Thesis Gigler\squatting_fais\c3dfiles\058\SLS_front_pre3\markers_experimental.trc
DataRate	CameraRate	NumFrames	NumMarkers	Units	OrigDataRate	OrigDataStartFrame	OrigNumFrames
200.000000	200.000000	4	61	mm	200.000000	631	1263
Frame#	Time	FHD			LBHD			RBHD			C7			T10			CLAV			LSHO			LUUPA			LMUPA			LDUPA			LLEP			LMEP			LRAD			LUL			LRFIN			RSHO			RUPA1			RMUPA			RDUPA			RLEP			RMEP			RRAD			RUL			RUFIN			LASI			RASI			USACR			LSACR			RSACR			LTHI1			LTHI2			LTHI3			LTHI4			LLFC			LMFC			LTIB1			LTIB2			LTIB3			LTIB4			LLMAL			LMMAL			LHEE			LMT1			LMT2			LMT5			RTHI			RTHI2			RTHI3			RTHI4			RLFC			RMFC			RTIB1			RTIB2			RTIB3			RTIB4			RLMAL			RMMAL			RHEE			RMT1			RMT2			RMT5			
		X1	Y1	Z1	X2	Y2	Z2	X3	Y3	Z3	X4	Y4	Z4	X5	Y5	Z5	X6	Y6	Z6	X7	Y7	Z7	X8	Y8	Z8	X9	Y9	Z9	X10	Y10	Z10	X11	Y11	Z11	X12	Y12	Z12	X13	Y13	Z13	X14	Y14	Z14	X15	Y15	Z15	X16	Y16	Z16	X17	Y17	Z17	X18	Y18	Z18	X19	Y19	Z19	X20	Y20	Z20	X21	Y21	Z21	X22	Y22	Z22	X23	Y23	Z23	X24	Y24	Z24	X25	Y25	Z25	X26	Y26	Z26	X27	Y27	Z27	X28	Y28	Z28	X29	Y29	Z29	X30	Y30	Z30	X31	Y31	Z31	X32	Y32	Z32	X33	Y33	Z33	X34	Y34	Z34	X35	Y35	Z35	X36	Y36	Z36	X37	Y37	Z37	X38	Y38	Z38	X39	Y39	Z39	X40	Y40	Z40	X41	Y41	Z41	X42	Y42	Z42	X43	Y43	Z43	X44	Y44	Z44	X45	Y45	Z45	X46	Y46	Z46	X47	Y47	Z47	X48	Y48	Z48	X49	Y49	Z49	X50	Y50	Z50	X51	Y51	Z51	X52	Y52	Z52	X53	Y53	Z53	X54	Y54	Z54	X55	Y55	Z55	X56	Y56	Z56	X57	Y57	Z57	X58	Y58	Z58	X59	Y59	Z59	X60	Y60	Z60	X61	Y61	Z61	

632	3.155	-283.9756164550782	1618.295166015625	-600.0079956054689	-431.079071044922	1543.012084960938	-672.3217163085939	-274.7145690917969	1627.8564453125	-742.1407470703126	-444.2843322753907	1433.36865234375	-689.7843627929689	-558.8569335937501	1152.34326171875	-701.1099853515626	-294.7853698730469	1355.554443359375	-676.5573120117189	-295.6892089843751	1423.469848632813	-821.3037719726565	-154.1278381347657	1372.01123046875	-942.418640136719	-128.1785888671875	1405.858642578125	-914.7552490234377	-84.21746063232423	1371.71142578125	-937.9007568359377	-7.712776184082033	1374.622924804688	-924.1746215820315	-2.17299485206604	1315.472290039063	-894.685729980469	258.9287109375001	1383.020141601563	-825.5921020507815	261.4270324707032	1413.854736328125	-900.7836914062502	358.1349487304688	1416.488037109375	-821.9810180664065	-311.7727966308594	1420.517944335938	-532.3658447265626	-160.7648315429688	1348.65185546875	-422.0790100097657	-139.8615264892578	1387.6396484375	-445.2241516113282	-92.35554504394533	1360.874145507813	-423.2473754882814	-23.43856048583985	1357.533569335938	-431.2625122070314	-11.31835174560547	1301.92822265625	-483.8034973144532	236.1262969970704	1411.397583007813	-504.0982971191407	240.4182739257813	1425.9716796875	-431.0677185058595	333.2185668945313	1447.61962890625	-498.061004638672	-416.1593017578126	946.1892089843752	-849.0445556640627	-416.5132751464845	923.7280273437502	-613.8417358398439	-603.7324829101564	1016.299194335938	-712.9996337890626	-615.0518798828126	987.6248168945315	-742.7991943359376	-612.2935180664064	982.4362792968752	-685.0214233398439	-312.9808654785157	752.6102294921876	-925.9510498046877	-234.8986358642579	720.0244750976564	-916.9058227539065	-207.0728454589844	749.0296630859376	-886.6958007812502	-216.5231628417969	662.6806030273439	-908.629577636719	-143.56689453125	597.2935180664064	-895.980407714844	-128.9820098876953	602.8281860351564	-767.9135131835939	-9.053292274475099	542.5116577148439	-855.512390136719	-16.74581336975098	482.8909301757814	-914.6582031250002	15.64742374420166	501.6297912597657	-889.550476074219	74.14148712158205	445.7113342285157	-864.8560180664065	173.3100128173828	263.8447875976563	-883.3013916015627	179.2522888183594	290.2496643066407	-794.0341796875002	157.927474975586	193.5695190429688	-831.1846313476565	318.9068908691407	347.5971069335938	-815.019470214844	318.8392333984376	354.7337951660157	-861.0249023437502	300.8007202148438	304.5073852539063	-914.4819335937502	-416.5044860839845	724.9097290039064	-548.0943603515626	-351.7355651855469	706.3632202148439	-547.1992187500001	-325.3717651367188	724.9890136718751	-549.3401489257814	-325.1818237304688	628.5555419921876	-568.7358398437501	-225.7367553710938	497.9404602050782	-593.2922973632814	-193.1898956298829	508.693572998047	-725.1741333007814	-225.2247467041016	319.1610412597657	-703.6749267578126	-286.8258361816407	249.3242950439454	-643.1273803710939	-255.5165710449219	237.8056030273438	-676.9914550781251	-279.4139709472657	204.3282928466797	-718.3958129882814	-366.2905883789063	110.5301513671875	-685.0400390625001	-333.9668884277344	139.8003997802735	-767.7099609375001	-436.512664794922	100.4466323852539	-751.6770019531251	-227.0948638916016	65.11217498779298	-761.8051147460939	-222.4290466308594	59.86207580566408	-710.2307128906251	-270.6244812011719	24.21510696411134	-662.1954956054689	
633	3.16	-284.1373901367188	1620.227416992188	-599.8500366210939	-431.4878540039064	1544.723754882813	-672.1696166992189	-275.0026550292969	1629.6923828125	-741.9325561523439	-444.408416748047	1434.834228515625	-689.6450195312501	-558.5701904296876	1153.74755859375	-701.2187500000001	-294.9579467773438	1357.528564453125	-676.4859008789064	-295.9734497070313	1425.394653320313	-821.2674560546877	-154.236572265625	1373.889282226563	-942.340759277344	-128.2771911621094	1407.779174804688	-914.5783691406252	-84.38232421875001	1373.578002929688	-937.7686157226565	-7.840280532836916	1376.498657226563	-924.0456542968752	-2.074223041534424	1317.505737304688	-894.6252441406252	258.7972412109376	1385.008544921875	-825.327575683594	261.5431518554688	1415.949829101563	-900.6037597656252	358.1644897460938	1418.7568359375	-821.9526977539065	-311.9135437011719	1422.1845703125	-532.2420654296876	-160.7585144042969	1350.572998046875	-422.1094360351564	-139.94873046875	1389.597900390625	-445.3570556640626	-92.42965698242189	1362.807006835938	-423.154754638672	-23.39066314697266	1359.646240234375	-431.2133789062501	-11.46316146850586	1304.036254882813	-483.6587524414064	235.9935913085938	1413.6142578125	-503.9643554687501	240.5078735351563	1428.020141601563	-430.8477172851564	333.4281921386719	1449.728637695313	-497.8843383789064	-415.8778381347657	947.6437988281252	-849.1318969726565	-416.2454223632814	925.5081787109377	-613.9896240234376	-603.3865356445314	1017.834167480469	-713.0104370117189	-614.6187133789064	989.2529296875002	-742.7392578125001	-611.7937011718751	984.2429199218752	-685.0170288085939	-312.8912658691407	754.0010986328126	-926.1062622070315	-235.1222076416016	721.1185302734376	-916.9226074218752	-207.1713562011719	750.0986328125001	-886.6888427734377	-216.5285186767579	664.0846557617189	-908.6773071289065	-143.96044921875	598.1836547851564	-896.0044555664065	-129.4135284423828	603.7566528320314	-767.8543701171876	-9.55485248565674	543.1875000000001	-855.6097412109377	-15.85939884185791	484.3904113769532	-914.9548950195315	14.99002075195313	502.1739501953126	-889.611511230469	73.75364685058595	446.3704223632814	-864.9470825195315	172.372787475586	264.0730285644532	-883.069763183594	178.608871459961	290.5606994628907	-793.870056152344	156.8440704345703	193.3492279052735	-831.0117187500002	318.0992431640626	347.8736572265626	-814.565612792969	317.9857482910157	354.6623229980469	-860.8388671875002	299.8819274902344	304.5686950683594	-914.1511230468752	-416.6524047851564	726.0773315429689	-548.2919311523439	-351.8901062011719	707.5270996093751	-547.4080200195314	-325.3890686035157	725.8038330078126	-549.6513671875001	-325.7420043945313	629.3383789062501	-568.7656860351564	-227.1457977294922	498.3292236328126	-593.2732543945314	-194.1268310546876	509.0951538085939	-725.2471313476564	-225.8207244873047	319.3727722167969	-703.5881347656251	-287.1123352050782	249.6850585937501	-643.2440185546876	-256.0109558105469	238.2278594970704	-676.8968505859376	-279.6864929199219	204.3106079101563	-718.3749389648439	-366.2993469238282	110.5121307373047	-685.0061645507814	-334.0310974121094	139.8232879638672	-767.6826171875001	-436.5108642578126	100.4407958984375	-751.6790771484376	-226.9308166503907	64.91199493408205	-761.8557128906251	-222.4854431152344	59.85504150390626	-710.2136840820314	-270.6482543945313	24.1251621246338	-662.2010498046876	
634	3.165	-284.3909301757813	1621.998168945313	-599.1814575195314	-431.4782104492189	1546.556518554688	-671.9248657226564	-275.1724853515626	1631.488525390625	-741.8590698242189	-444.566375732422	1436.578125	-689.4434814453126	-558.2645263671876	1155.562744140625	-701.2797851562501	-295.1050109863282	1359.465942382813	-676.4017333984376	-295.9693908691407	1427.16845703125	-821.1574707031252	-154.2004699707032	1375.614501953125	-942.2015380859377	-128.2494049072266	1409.740600585938	-914.5864257812502	-84.44370269775392	1375.401123046875	-937.615417480469	-7.80220937728882	1378.495971679688	-924.0587158203127	-1.982839107513428	1318.733276367188	-894.5946044921877	258.7833862304688	1387.418090820313	-825.1409301757815	261.4897155761719	1418.092041015625	-900.5730590820315	357.8041992187501	1420.732177734375	-821.7456054687502	-312.0877075195313	1424.11767578125	-531.9906005859376	-160.8021392822266	1352.333374023438	-422.1143188476564	-140.0155181884766	1391.293823242188	-445.2876586914064	-92.37484741210939	1364.969848632813	-423.0935363769532	-23.57946586608887	1361.637817382813	-431.1820373535157	-11.59480571746826	1305.737915039063	-483.5909729003907	236.6046142578126	1415.77880859375	-504.1960754394532	240.4756774902344	1430.26904296875	-430.6643371582032	333.4048156738282	1452.04345703125	-497.6358032226564	-415.6768493652345	949.150329589844	-849.2893676757815	-415.8040161132814	926.826354980469	-614.1303100585939	-603.1884765625001	1019.619567871094	-713.0007324218751	-614.2810058593751	991.0193481445315	-742.6833496093751	-611.4514160156251	985.798278808594	-685.0131225585939	-312.8701782226563	755.2670898437501	-926.1797485351565	-235.1573638916016	722.2718505859376	-917.0072021484377	-206.9331970214844	751.1658935546876	-886.860778808594	-216.8717803955079	664.9939575195314	-908.7912597656252	-144.3687286376953	599.2688598632814	-895.9736938476565	-130.0264129638672	604.3400268554689	-768.0127563476565	-10.11214733123779	543.6481933593751	-855.613220214844	-17.57646942138672	484.2061462402345	-914.6594238281252	14.79101085662842	502.5070190429689	-889.6389160156252	72.76816558837892	446.6855773925782	-864.8945312500002	171.3798217773438	264.2653808593751	-882.930114746094	177.1008453369141	290.9851074218751	-793.6853637695315	155.833480834961	194.1716613769532	-830.8416748046877	317.0361328125001	347.8116455078126	-814.3386840820315	317.0760192871094	354.9165344238282	-860.716491699219	298.8328247070313	304.4108276367188	-914.0179443359377	-416.9133911132814	727.6420898437501	-548.5222167968751	-352.1569519042969	708.4273071289064	-547.5921020507814	-325.5527648925782	726.7597656250001	-549.7030639648439	-326.1859436035157	630.1921386718751	-569.0080566406251	-228.0291442871094	498.8446655273439	-593.3584594726564	-195.0361785888672	509.4619140625001	-725.3114013671876	-226.5467529296876	319.5945129394532	-703.5442504882814	-287.7023010253907	250.2306518554688	-643.1246337890626	-257.8152465820313	239.1939086914063	-678.5457153320314	-279.8179931640626	204.4586791992188	-718.3315429687501	-366.3494567871094	110.5365219116211	-685.0039062500001	-334.0737609863282	139.7972717285157	-767.6542358398439	-436.5236206054689	100.4269714355469	-751.6663818359376	-227.0363769531251	65.02805328369142	-761.8053588867189	-222.4710540771485	59.883358001709	-710.1913452148439	-270.6456909179688	24.17353439331055	-662.1976928710939	
635	3.17	-284.6434631347657	1623.64892578125	-599.1342773437501	-431.969940185547	1548.16162109375	-671.5979614257814	-275.6782226562501	1633.166259765625	-741.9273681640626	-444.6229553222657	1438.4169921875	-689.2456054687501	-558.1555786132814	1156.91845703125	-701.2204589843751	-295.2769775390626	1361.427734375	-676.3240966796876	-295.7688903808594	1429.077880859375	-821.0562133789065	-154.1929626464844	1377.5517578125	-942.087341308594	-128.4421539306641	1411.655029296875	-914.486022949219	-84.31346893310548	1377.4404296875	-937.5405273437502	-7.751942634582521	1380.502685546875	-923.9829711914065	-2.267961263656617	1321.103393554688	-894.2335205078127	258.7181396484376	1389.490478515625	-824.946228027344	261.3669738769532	1420.00244140625	-900.3670043945315	357.5979309082032	1422.99951171875	-821.5821533203127	-312.2142944335938	1425.878173828125	-532.1196289062501	-160.9797821044922	1354.131103515625	-421.9597778320314	-140.1346435546875	1393.26611328125	-445.2053527832032	-92.52840423583986	1366.595458984375	-422.954559326172	-23.55358695983887	1363.663940429688	-431.0706787109376	-11.55076122283936	1307.900146484375	-483.6413574218751	236.654769897461	1418.043701171875	-504.3144531250001	240.4134216308594	1432.500244140625	-430.5545349121095	332.7129516601563	1453.547241210938	-498.0276794433595	-415.2391662597657	950.7009277343752	-849.3776855468752	-414.9926147460939	928.2686157226565	-614.3320312500001	-602.8718261718751	1021.282836914063	-713.1079711914064	-613.8894653320314	992.8723754882815	-742.7374877929689	-611.4271240234376	987.4072875976565	-684.9781494140626	-312.7745056152344	756.6499633789064	-926.246765136719	-235.2100067138672	723.4290161132814	-917.161804199219	-207.1537780761719	752.1423339843751	-886.9440917968752	-216.8939819335938	666.1568603515626	-908.943542480469	-144.5129089355469	600.1496582031251	-896.172790527344	-130.5297393798828	605.3595581054689	-768.2069091796877	-10.6728572845459	544.2918701171876	-855.6348876953127	-18.25243186950684	484.8631591796876	-914.6668090820315	14.3083143234253	503.343963623047	-889.6943969726565	71.9203338623047	447.1243591308595	-865.0312500000002	170.3032379150391	264.4565124511719	-882.7860107421877	176.4260559082032	291.1979675292969	-793.6562500000002	154.7202606201172	194.1694641113282	-830.7873535156252	316.0878295898438	348.0635070800782	-814.0634765625002	316.2596130371094	355.0006713867188	-860.376159667969	298.1070861816407	304.4373474121094	-913.814880371094	-416.8468627929689	728.9324951171876	-548.7152709960939	-352.5976257324219	709.2518920898439	-547.4732055664064	-325.8204345703126	727.7962036132814	-549.6875000000001	-326.9504699707032	631.0313720703126	-569.0344238281251	-228.8480529785157	499.5840759277345	-593.4589233398439	-195.9563598632813	509.8379516601564	-725.2655639648439	-227.1229858398438	319.7760009765626	-703.4357910156251	-288.0229797363282	250.4000091552735	-643.1573486328126	-258.3385620117188	239.3308258056641	-678.4579467773439	-280.1708984375001	204.6564941406251	-718.2457275390626	-366.4301452636719	110.5114212036133	-684.9793701171876	-334.1644897460938	139.7772369384766	-767.5964965820314	-436.5342407226564	100.4092636108399	-751.6798095703126	-226.8939208984376	65.27516937255861	-761.8125000000001	-222.4614562988282	59.91006088256837	-710.1731567382814	-270.6431884765626	24.14461898803712	-662.1992797851564	
